<?xml version="1.0" encoding="UTF-8" standalone="no"?>
<svg
   xmlns:serif="http://www.serif.com/"
   xmlns:dc="http://purl.org/dc/elements/1.1/"
   xmlns:cc="http://creativecommons.org/ns#"
   xmlns:rdf="http://www.w3.org/1999/02/22-rdf-syntax-ns#"
   xmlns:svg="http://www.w3.org/2000/svg"
   xmlns="http://www.w3.org/2000/svg"
   xmlns:sodipodi="http://sodipodi.sourceforge.net/DTD/sodipodi-0.dtd"
   xmlns:inkscape="http://www.inkscape.org/namespaces/inkscape"
   width="1555.2239"
   height="1555.2239"
   viewBox="0 0 1555.2239 1555.2239"
   version="1.1"
   xml:space="preserve"
   style="clip-rule:evenodd;fill-rule:evenodd;stroke-linejoin:round;stroke-miterlimit:2"
   id="svg129"
   sodipodi:docname="coronavirus.svg"
   inkscape:version="0.92.4 (5da689c313, 2019-01-14)"><metadata
   id="metadata135"><rdf:RDF><cc:Work
       rdf:about=""><dc:format>image/svg+xml</dc:format><dc:type
         rdf:resource="http://purl.org/dc/dcmitype/StillImage" /><dc:title /></cc:Work></rdf:RDF></metadata><defs
   id="defs133" /><sodipodi:namedview
   pagecolor="#ffffff"
   bordercolor="#666666"
   borderopacity="1"
   objecttolerance="10"
   gridtolerance="10"
   guidetolerance="10"
   inkscape:pageopacity="0"
   inkscape:pageshadow="2"
   inkscape:window-width="1920"
   inkscape:window-height="1016"
   id="namedview131"
   showgrid="false"
   inkscape:zoom="0.33900904"
   inkscape:cx="559.18073"
   inkscape:cy="998.17198"
   inkscape:window-x="0"
   inkscape:window-y="927"
   inkscape:window-maximized="1"
   inkscape:current-layer="svg129" />
    <g
   transform="matrix(0.389016,0,0,0.389016,-0.42027104,-0.42027109)"
   id="g4"
   style="fill:#00bcff;fill-opacity:1">
        <path
   d="m 1939.59,436.566 c 7.12,-28.434 11.46,-56.642 11.35,-83.033 -0.49,-122.237 -111.55,-150.26 -112.92,-252.413 -1.17,-86.871 136.75,-99.958 172.11,-100.039 37.79,-0.088 179.79,8.549 181.14,103.689 1.41,99.104 -127.54,171.811 -127.24,248.355 0.09,21.034 7.48,51.08 18.57,84.573 163.1,8.663 319.59,42.372 465.79,97.374 16.54,-22.609 30.56,-45.961 40.18,-69.341 46.56,-113.161 -45.19,-181.734 -7.17,-276.673 32.34,-80.735 164.7,-39.835 197.38,-26.323 34.93,14.442 162.7,76.986 127.35,165.435 -36.82,92.133 -183.84,109.779 -212.99,180.64 -7.76,18.842 -12.44,48.11 -15.13,81.885 141.83,68.64 271.73,158.081 385.81,264.394 26.19,-15.483 50.18,-32.883 69.41,-52.276 86.08,-86.77 27.37,-185.103 98.62,-258.298 60.59,-62.244 167.35,26.015 192.41,50.96 26.79,26.659 121.07,133.16 54.77,201.381 -69.07,71.062 -211.65,31.292 -265.55,85.627 -15.32,15.448 -31.93,43.244 -48.3,76.203 l 1.18,1.321 c 16.62,18.705 32.82,37.78 48.55,57.243 31.51,38.99 61.15,79.49 88.78,121.32 26.87,40.67 51.83,82.59 74.78,125.59 11.52,21.58 22.52,43.45 33.03,65.54 l 0.85,1.81 c 29.96,-4.24 58.64,-11.08 83.74,-21.54 112.8,-47.04 96.42,-160.29 190.33,-200.48 79.86,-34.19 144.46,88.21 158,120.84 14.47,34.87 60.55,169.31 -26.88,206.81 -91.07,39.07 -207.38,-52.33 -278.02,-22.87 -19.57,8.16 -44.79,26.67 -71.75,49.93 53.53,146.98 85.62,304.22 92.48,467.94 29.54,7.61 58.88,12.29 86.27,12.18 122.22,-0.49 150.24,-111.57 252.38,-112.94 86.85,-1.17 99.94,136.77 100.02,172.14 0.09,37.8 -8.55,179.81 -103.67,181.17 -99.09,1.41 -171.79,-127.57 -248.32,-127.26 -21.59,0.09 -52.67,7.88 -87.22,19.46 l -0.1,2.05 c -1.37,26.49 -3.36,52.95 -6.05,79.34 -5.13,50.45 -12.71,100.65 -22.73,150.36 -10.35,51.35 -23.31,102.18 -38.8,152.22 -8.03,25.94 -16.76,51.66 -26.13,77.15 l -0.76,2.06 c 23.95,17.97 48.81,33.22 73.71,43.46 113.03,46.51 181.62,-45.38 276.45,-7.41 80.63,32.3 39.66,164.81 26.13,197.53 -14.46,34.97 -77.06,162.9 -165.41,127.6 -92.02,-36.77 -109.52,-183.9 -180.3,-213.02 -19.74,-8.12 -50.94,-12.86 -86.79,-15.45 -63.86,133.23 -146.06,256.04 -243.33,365.17 15.85,27.2 33.76,52.14 53.79,72.01 86.76,86.07 185.1,27.35 258.29,98.59 62.23,60.58 -26.04,167.35 -50.99,192.42 -26.66,26.78 -133.17,121.08 -201.38,54.78 -71.06,-69.06 -31.27,-211.64 -85.6,-265.53 -15.41,-15.29 -43.1,-31.85 -75.93,-48.16 -110.63,103.1 -236.2,190.35 -373.08,258.14 4.25,28.49 10.93,55.7 20.91,79.65 46.99,112.69 160.33,96.24 200.49,190.05 34.16,79.78 -88.37,144.43 -121.03,157.98 -34.91,14.48 -169.48,60.63 -206.95,-26.72 -39.03,-90.98 52.52,-207.27 23.09,-277.83 -7.62,-18.27 -24.28,-41.46 -45.41,-66.41 -148.15,57.32 -307.13,92.69 -472.98,102.15 -7.78,29.92 -12.58,59.66 -12.47,87.4 0.5,122.23 111.55,150.26 112.93,252.41 1.17,86.87 -136.75,99.96 -172.11,100.04 -37.8,0.09 -179.79,-8.55 -181.14,-103.69 -1.41,-99.1 127.54,-171.81 127.23,-248.35 -0.09,-21.38 -7.71,-52.05 -19.1,-86.17 l -0.98,-0.03 c -26.59,-0.95 -53.16,-2.53 -79.67,-4.8 -49.85,-4.28 -99.49,-10.94 -148.7,-19.98 -51.65,-9.48 -102.81,-21.59 -153.22,-36.26 -26.89,-7.83 -53.55,-16.4 -79.98,-25.65 l -0.48,-0.16 c -19.23,25.15 -35.58,51.37 -46.38,77.63 -46.57,113.16 45.18,181.73 7.16,276.67 -32.33,80.74 -164.7,39.84 -197.38,26.32 -34.92,-14.44 -162.7,-76.98 -127.35,-165.43 36.82,-92.13 183.84,-109.78 213,-180.64 8.32,-20.22 13.1,-52.44 15.68,-89.33 -143.96,-66.31 -276.14,-153.88 -392.48,-258.63 -25.676,15.28 -49.186,32.43 -68.105,51.5 -86.073,86.77 -27.364,185.1 -98.613,258.3 -60.59,62.24 -167.355,-26.02 -192.415,-50.96 -26.783,-26.66 -121.071,-133.16 -54.764,-201.38 69.069,-71.06 211.646,-31.29 265.544,-85.63 14.731,-14.85 30.653,-41.11 46.394,-72.38 -108.566,-117.28 -199.39,-251.21 -268.198,-397.52 -28.636,4.27 -55.99,10.97 -80.051,21 -112.807,47.04 -96.427,160.29 -190.332,200.49 -79.856,34.18 -144.464,-88.22 -158.003,-120.85 -14.471,-34.87 -60.55,-169.31 26.881,-206.81 91.073,-39.07 207.379,52.33 278.018,22.87 18.917,-7.88 43.103,-25.44 69.066,-47.62 -52.676,-145.06 -84.475,-300.17 -91.732,-461.63 -28.635,-7.21 -57.033,-11.6 -83.592,-11.5 -122.218,0.5 -150.237,111.57 -252.374,112.95 -86.857,1.17 -99.942,-136.77 -100.023,-172.14 -0.088,-37.8 8.547,-179.82 103.673,-181.17 99.088,-1.41 171.784,127.56 248.316,127.25 20.924,-0.08 50.766,-7.4 84.023,-18.39 l 0.051,-1.14 c 1.241,-26.52 3.109,-53.01 5.67,-79.43 4.816,-49.71 12.011,-99.18 21.573,-148.2 10.038,-51.46 22.684,-102.41 37.88,-152.59 7.875,-26 16.453,-51.79 25.665,-77.35 l 0.43,-1.19 c -23.914,-17.93 -48.733,-33.15 -73.587,-43.37 -113.026,-46.51 -181.619,45.38 -276.444,7.4 -80.639,-32.29 -39.66,-164.8 -26.131,-197.52 14.459,-34.97 77.059,-162.9 165.402,-127.6 92.024,36.77 109.528,183.9 180.304,213.02 19.52,8.03 50.25,12.75 85.587,15.36 69.227,-147.05 160.708,-281.6 270.05,-399.234 -14.964,-24.873 -31.703,-47.642 -50.27,-66.06 -86.76,-86.063 -185.099,-27.343 -258.286,-98.584 -62.237,-60.583 26.034,-167.357 50.982,-192.42 26.662,-26.786 133.173,-121.086 201.387,-54.787 71.055,69.061 31.268,211.642 85.597,265.534 14.837,14.718 41.069,30.624 72.314,46.354 119.873,-107.58 256.453,-196.928 405.343,-263.636 -4.28,-26.612 -10.73,-52.003 -20.12,-74.508 C 1293.5,384.156 1180.16,400.604 1140,306.794 c -34.15,-79.775 88.38,-144.423 121.04,-157.976 34.91,-14.484 169.47,-60.626 206.94,26.717 39.03,90.98 -52.51,207.268 -23.09,277.836 7.65,18.334 24.4,41.616 45.63,66.652 141.64,-48.718 292.44,-77.638 449.07,-83.457 z"
   style="fill:#00bcff;fill-opacity:1"
   id="path2"
   inkscape:connector-curvature="0" />
    </g>
    <g
   transform="matrix(-1.59545,0.0184419,-0.0184419,-1.59545,3150.4877,3195.9797)"
   id="g41">
        <g
   id="g39"
   style="opacity:0.2">
            <g
   id="circle833"
   transform="matrix(0.348194,0,0,0.348194,770.357,730.022)">
                <circle
   cx="1699.7"
   cy="1707.48"
   r="93.670998"
   id="circle6" />
            </g>
            <g
   id="circle835"
   transform="matrix(0.301428,0,0,0.301428,1028.64,869.724)">
                <circle
   cx="1569"
   cy="2155.6101"
   r="164.625"
   id="circle9" />
            </g>
            <g
   id="circle837"
   transform="matrix(0.370944,0,0,0.370944,701.54,791.604)">
                <circle
   cx="1923.77"
   cy="2525.3201"
   r="104.875"
   id="circle12" />
            </g>
            <g
   id="circle839"
   transform="matrix(0.187408,0,0,0.187408,1235.46,1065.38)">
                <circle
   cx="2485.3701"
   cy="1953.8199"
   r="172.09399"
   id="circle15" />
            </g>
            <g
   id="circle8391"
   serif:id="circle839"
   transform="matrix(0.183259,0,0,0.183259,830.801,1185.47)">
                <circle
   cx="2485.3701"
   cy="1953.8199"
   r="172.09399"
   id="circle18" />
            </g>
            <g
   id="circle841"
   transform="matrix(0.431746,0,0,0.431746,618.83,618.83)">
                <circle
   cx="2144.1001"
   cy="1513.29"
   r="41.389"
   id="circle21" />
            </g>
            <g
   id="circle8411"
   serif:id="circle841"
   transform="matrix(0.320652,0,0,0.320652,1000,822.788)">
                <circle
   cx="2144.1001"
   cy="1513.29"
   r="41.389"
   id="circle24" />
            </g>
            <g
   id="circle8412"
   serif:id="circle841"
   transform="matrix(0.431746,0,0,0.431746,353.652,1040.56)">
                <circle
   cx="2144.1001"
   cy="1513.29"
   r="41.389"
   id="circle27" />
            </g>
            <g
   id="circle8413"
   serif:id="circle841"
   transform="matrix(0.431746,0,0,0.431746,300.196,771.909)">
                <circle
   cx="2144.1001"
   cy="1513.29"
   r="41.389"
   id="circle30" />
            </g>
            <g
   id="circle843"
   transform="matrix(0.226964,0,0,0.226964,1222.74,1217.1)">
                <circle
   cx="2044.95"
   cy="1885.88"
   r="131.015"
   id="circle33" />
            </g>
            <g
   id="circle845"
   transform="matrix(0.33076,0,0,0.33076,834.516,979.057)">
                <circle
   cx="2246.8701"
   cy="2413.02"
   r="71.264999"
   id="circle36" />
            </g>
        </g>
    </g>
    
    
</svg>